<?xml version="1.0" encoding="UTF-8"?>
<svg version="1.1" xmlns="http://www.w3.org/2000/svg" width="200" height="60">
<path d="M0 0 C1.98 0 3.96 0 6 0 C7.58482571 3.16965142 7.37852823 6.63744541 7.5625 10.125 C7.706875 12.72375 7.85125 15.3225 8 18 C9.32 12.06 10.64 6.12 12 0 C14.31 0 16.62 0 19 0 C17.02501099 25.9701529 17.02501099 25.9701529 15 37 C13.68 37 12.36 37 11 37 C11 33.37 11 29.74 11 26 C10.01 29.63 9.02 33.26 8 37 C6.35 37 4.7 37 3 37 C2.67 35.02 2.34 33.04 2 31 C1.67 32.98 1.34 34.96 1 37 C-0.65 37 -2.3 37 -4 37 C-3.5937771 32.69472515 -3.18474912 28.3897285 -2.77319336 24.08496094 C-2.63376214 22.62246803 -2.49507892 21.1599036 -2.35717773 19.69726562 C-2.15808665 17.58704391 -1.95624907 15.4770996 -1.75390625 13.3671875 C-1.63345947 12.09987793 -1.5130127 10.83256836 -1.38891602 9.52685547 C-1.03561116 6.32293712 -0.56575095 3.17247515 0 0 Z M12 16 C13 18 13 18 13 18 Z " fill="#FF6600" transform="translate(79,10)"/>
<path d="M0 0 C1.98 0 3.96 0 6 0 C7.58482571 3.16965142 7.37852823 6.63744541 7.5625 10.125 C7.706875 12.72375 7.85125 15.3225 8 18 C9.32 12.06 10.64 6.12 12 0 C14.31 0 16.62 0 19 0 C17.02501099 25.9701529 17.02501099 25.9701529 15 37 C13.68 37 12.36 37 11 37 C11 33.37 11 29.74 11 26 C10.01 29.63 9.02 33.26 8 37 C6.35 37 4.7 37 3 37 C2.67 35.02 2.34 33.04 2 31 C1.67 32.98 1.34 34.96 1 37 C-0.65 37 -2.3 37 -4 37 C-3.5937771 32.69472515 -3.18474912 28.3897285 -2.77319336 24.08496094 C-2.63376214 22.62246803 -2.49507892 21.1599036 -2.35717773 19.69726562 C-2.15808665 17.58704391 -1.95624907 15.4770996 -1.75390625 13.3671875 C-1.63345947 12.09987793 -1.5130127 10.83256836 -1.38891602 9.52685547 C-1.03561116 6.32293712 -0.56575095 3.17247515 0 0 Z M12 16 C13 18 13 18 13 18 Z " fill="#FF6600" transform="translate(21,10)"/>
<path d="M0 0 C3.96 0 7.92 0 12 0 C16.57463646 6.67134483 15.71742521 14.60707028 14.4609375 22.30078125 C13.78717206 25.27349362 12.98293448 28.11586331 12 31 C11.76796875 31.68707031 11.5359375 32.37414063 11.296875 33.08203125 C10.5 34.75 10.5 34.75 8 37 C4.28087433 37.48370132 0.72682467 37.34698023 -3 37 C-3.20752677 29.05345395 -2.39600308 21.32797758 -1.5 13.4375 C-1.35691406 12.14263672 -1.21382813 10.84777344 -1.06640625 9.51367188 C-0.71529452 6.34196256 -0.35824687 3.17091132 0 0 Z M4 7 C3.66227261 9.70784994 3.32969313 12.41616996 3 15.125 C2.90460938 15.88554687 2.80921875 16.64609375 2.7109375 17.4296875 C2.20169812 21.64909952 1.89111932 25.74004344 2 30 C4.42267086 30.05167527 4.42267086 30.05167527 7 29 C11.00367617 22.92545685 10.51380532 16.06482321 10 9 C9.67 8.34 9.34 7.68 9 7 C7.35 7 5.7 7 4 7 Z " fill="#FF6600" transform="translate(118,10)"/>
<path d="M0 0 C1.65 0 3.3 0 5 0 C4.85923685 1.9587043 4.7122324 3.91696093 4.5625 5.875 C4.48128906 6.96554688 4.40007812 8.05609375 4.31640625 9.1796875 C4 12 4 12 3 14 C5.31 14 7.62 14 10 14 C10.33 9.38 10.66 4.76 11 0 C12.65 0 14.3 0 16 0 C14.02501099 25.9701529 14.02501099 25.9701529 12 37 C10.68 37 9.36 37 8 37 C7.90311779 31.55306686 7.87137825 26.36095333 9 21 C7.02 21.33 5.04 21.66 3 22 C2.34 26.95 1.68 31.9 1 37 C-0.65 37 -2.3 37 -4 37 C-3.5937771 32.69472515 -3.18474912 28.3897285 -2.77319336 24.08496094 C-2.63376214 22.62246803 -2.49507892 21.1599036 -2.35717773 19.69726562 C-2.15808665 17.58704391 -1.95624907 15.4770996 -1.75390625 13.3671875 C-1.63345947 12.09987793 -1.5130127 10.83256836 -1.38891602 9.52685547 C-1.03561116 6.32293712 -0.56575095 3.17247515 0 0 Z " fill="#FF6600" transform="translate(60,10)"/>
<path d="M0 0 C1.65 0 3.3 0 5 0 C4.93941406 0.81339844 4.87882812 1.62679688 4.81640625 2.46484375 C4.12127911 11.97204413 3.54152485 21.48298889 3 31 C4.32 31 5.64 31 7 31 C8.32 20.77 9.64 10.54 11 0 C12.65 0 14.3 0 16 0 C15.71802199 3.62582017 15.42260548 7.25043175 15.125 10.875 C15.00705078 12.39480469 15.00705078 12.39480469 14.88671875 13.9453125 C13.27122831 33.33119778 13.27122831 33.33119778 8 38 C5.5625 39.125 5.5625 39.125 3 39 C-0.36049888 36.37242892 -1.8486359 34.90924307 -2.55859375 30.64453125 C-2.51863281 29.37996094 -2.47867188 28.11539063 -2.4375 26.8125 C-2.42009766 26.12994141 -2.40269531 25.44738281 -2.38476562 24.74414062 C-2.09282824 16.45761024 -1.06512056 8.21664435 0 0 Z " fill="#FF6600" transform="translate(100,10)"/>
<path d="M0 0 C1.98 0 3.96 0 6 0 C6.34057018 4.10359896 6.67110268 8.2079503 7 12.3125 C7.09539063 13.46041016 7.19078125 14.60832031 7.2890625 15.79101562 C7.85131134 22.87936712 8.12984909 29.88986069 8 37 C6.35 36.67 4.7 36.34 3 36 C3 34.02 3 32.04 3 30 C1.02 30 -0.96 30 -3 30 C-3.66 32.31 -4.32 34.62 -5 37 C-6.65 37 -8.3 37 -10 37 C-8.89811674 32.85549467 -7.79538409 28.71121653 -6.69189453 24.56713867 C-6.3173171 23.15997291 -5.94296401 21.7527474 -5.56884766 20.34545898 C-5.02827263 18.31217613 -4.48686704 16.27911591 -3.9453125 14.24609375 C-3.45828857 12.41582642 -3.45828857 12.41582642 -2.96142578 10.54858398 C-2.00602549 7.02223983 -1.01198019 3.51042935 0 0 Z M1 14 C0.34 16.97 -0.32 19.94 -1 23 C0.32 23 1.64 23 3 23 C2.67 20.03 2.34 17.06 2 14 C1.67 14 1.34 14 1 14 Z " fill="#FF6600" transform="translate(47,10)"/>
<path d="M0 0 C4.95 0 9.9 0 15 0 C15 2.31 15 4.62 15 7 C13.02 7 11.04 7 9 7 C8.95101562 8.07636719 8.90203125 9.15273438 8.8515625 10.26171875 C8.40197395 19.30021377 7.59768109 28.08090653 6 37 C4.68 37 3.36 37 2 37 C1.90344033 30.60774983 2.23512343 24.41377752 2.9375 18.0625 C3.02451172 17.21365234 3.11152344 16.36480469 3.20117188 15.49023438 C3.87036949 9.25926102 3.87036949 9.25926102 5 7 C3.02 7 1.04 7 -1 7 C-0.67 4.69 -0.34 2.38 0 0 Z " fill="#FF6600" transform="translate(157,10)"/>
<path d="M0 0 C1.65 0 3.3 0 5 0 C4.5937771 4.30527485 4.18474912 8.6102715 3.77319336 12.91503906 C3.63376214 14.37753197 3.49507892 15.8400964 3.35717773 17.30273438 C3.15808665 19.41295609 2.95624907 21.5229004 2.75390625 23.6328125 C2.63345947 24.90012207 2.5130127 26.16743164 2.38891602 27.47314453 C2.03561116 30.67706288 1.56575095 33.82752485 1 37 C-0.65 37 -2.3 37 -4 37 C-3.59448025 32.53394191 -3.18543972 28.06822422 -2.77319336 23.6027832 C-2.63356272 22.08496745 -2.4948793 20.56706424 -2.35717773 19.04907227 C-2.1586048 16.86190252 -1.9565805 14.67507429 -1.75390625 12.48828125 C-1.63345947 11.17384033 -1.5130127 9.85939941 -1.38891602 8.50512695 C-1.06791898 5.61212352 -0.63251441 2.83796089 0 0 Z " fill="#FF6600" transform="translate(151,10)"/>
<path d="M0 0 C2.64 0 5.28 0 8 0 C8 2.31 8 4.62 8 7 C5.36 7 2.72 7 0 7 C0 4.69 0 2.38 0 0 Z " fill="#FF6600" transform="translate(139,30)"/>
</svg>
